# xmcd CD database file
#
# Track frame offsets:
#	150
#	30183
#	69956
#	108633
#	134014
#	156739
#	192797
#	221903
#	252522
#
# Disc length: 3771 seconds
#
# Revision: 0
# Processed by: cddbd v1.5.2PL0 Copyright (c) Steve Scherf et al.
# Submitted via: CDex 1.51
#
DISCID=880eb909
DTITLE=Charles Mingus - Jazzical Moods Volume 2 - Blues And Roots
DYEAR=1900
DGENRE=Jazz
TTITLE0=Thrice Upon A Theme
TTITLE1=Four Hands
TTITLE2=The Spur Of The Moment - Echonitus
TTITLE3=Wednesday Night Prayer Meeting
TTITLE4=Cryin' Blues
TTITLE5=Moanin'
TTITLE6=Tensions
TTITLE7=My Jelly Roll Soul
TTITLE8=E's Flat Ah's Flat Too
EXTD=
EXTT0=
EXTT1=
EXTT2=
EXTT3=
EXTT4=
EXTT5=
EXTT6=
EXTT7=
EXTT8=
PLAYORDER=
